<svg id="visual" viewBox="0 0 900 600" width="900" height="600" xmlns="http://www.w3.org/2000/svg" xmlns:xlink="http://www.w3.org/1999/xlink" version="1.1"><rect x="0" y="0" width="900" height="600" fill="#ffffff"></rect><path d="M0 425L21.5 423.7C43 422.3 86 419.7 128.8 425C171.7 430.3 214.3 443.7 257.2 452.2C300 460.7 343 464.3 385.8 453.8C428.7 443.3 471.3 418.7 514.2 417C557 415.3 600 436.7 642.8 446.2C685.7 455.7 728.3 453.3 771.2 459.5C814 465.7 857 480.3 878.5 487.7L900 495L900 601L878.5 601C857 601 814 601 771.2 601C728.3 601 685.7 601 642.8 601C600 601 557 601 514.2 601C471.3 601 428.7 601 385.8 601C343 601 300 601 257.2 601C214.3 601 171.7 601 128.8 601C86 601 43 601 21.5 601L0 601Z" fill="#F35588" stroke-linecap="round" stroke-linejoin="miter"></path></svg>