<svg id="visual" viewBox="0 0 900 600" width="900" height="600" xmlns="http://www.w3.org/2000/svg" xmlns:xlink="http://www.w3.org/1999/xlink" version="1.1"><rect x="0" y="0" width="900" height="600" fill="#f3f3f3"></rect><path d="M0 247L21.5 236.2C43 225.3 86 203.7 128.8 194.5C171.7 185.3 214.3 188.7 257.2 179.5C300 170.3 343 148.7 385.8 129.7C428.7 110.7 471.3 94.3 514.2 105C557 115.7 600 153.3 642.8 154C685.7 154.7 728.3 118.3 771.2 108.7C814 99 857 116 878.5 124.5L900 133L900 601L878.5 601C857 601 814 601 771.2 601C728.3 601 685.7 601 642.8 601C600 601 557 601 514.2 601C471.3 601 428.7 601 385.8 601C343 601 300 601 257.2 601C214.3 601 171.7 601 128.8 601C86 601 43 601 21.5 601L0 601Z" fill="#f35588"></path><path d="M0 332L21.5 317.8C43 303.7 86 275.3 128.8 259.3C171.7 243.3 214.3 239.7 257.2 256C300 272.3 343 308.7 385.8 299.3C428.7 290 471.3 235 514.2 209.2C557 183.3 600 186.7 642.8 204.5C685.7 222.3 728.3 254.7 771.2 257C814 259.3 857 231.7 878.5 217.8L900 204L900 601L878.5 601C857 601 814 601 771.2 601C728.3 601 685.7 601 642.8 601C600 601 557 601 514.2 601C471.3 601 428.7 601 385.8 601C343 601 300 601 257.2 601C214.3 601 171.7 601 128.8 601C86 601 43 601 21.5 601L0 601Z" fill="#f69158"></path><path d="M0 388L21.5 382C43 376 86 364 128.8 361C171.7 358 214.3 364 257.2 364.8C300 365.7 343 361.3 385.8 350.2C428.7 339 471.3 321 514.2 313.2C557 305.3 600 307.7 642.8 316.8C685.7 326 728.3 342 771.2 340C814 338 857 318 878.5 308L900 298L900 601L878.5 601C857 601 814 601 771.2 601C728.3 601 685.7 601 642.8 601C600 601 557 601 514.2 601C471.3 601 428.7 601 385.8 601C343 601 300 601 257.2 601C214.3 601 171.7 601 128.8 601C86 601 43 601 21.5 601L0 601Z" fill="#d0cb6c"></path><path d="M0 445L21.5 448.8C43 452.7 86 460.3 128.8 474C171.7 487.7 214.3 507.3 257.2 503C300 498.7 343 470.3 385.8 472.3C428.7 474.3 471.3 506.7 514.2 511C557 515.3 600 491.7 642.8 478.8C685.7 466 728.3 464 771.2 467C814 470 857 478 878.5 482L900 486L900 601L878.5 601C857 601 814 601 771.2 601C728.3 601 685.7 601 642.8 601C600 601 557 601 514.2 601C471.3 601 428.7 601 385.8 601C343 601 300 601 257.2 601C214.3 601 171.7 601 128.8 601C86 601 43 601 21.5 601L0 601Z" fill="#a3f7bf"></path></svg>