<svg id="visual" viewBox="0 0 900 600" width="900" height="600" xmlns="http://www.w3.org/2000/svg" xmlns:xlink="http://www.w3.org/1999/xlink" version="1.1"><rect x="0" y="0" width="900" height="600" fill="#f3f3f3"></rect><path d="M0 465L18.8 464.7C37.7 464.3 75.3 463.7 112.8 463.8C150.3 464 187.7 465 225.2 467.3C262.7 469.7 300.3 473.3 337.8 477.7C375.3 482 412.7 487 450.2 489.2C487.7 491.3 525.3 490.7 562.8 489.5C600.3 488.3 637.7 486.7 675.2 483.5C712.7 480.3 750.3 475.7 787.8 476C825.3 476.3 862.7 481.7 881.3 484.3L900 487L900 601L881.3 601C862.7 601 825.3 601 787.8 601C750.3 601 712.7 601 675.2 601C637.7 601 600.3 601 562.8 601C525.3 601 487.7 601 450.2 601C412.7 601 375.3 601 337.8 601C300.3 601 262.7 601 225.2 601C187.7 601 150.3 601 112.8 601C75.3 601 37.7 601 18.8 601L0 601Z" fill="#aca8ff"></path><path d="M0 548L18.8 548.8C37.7 549.7 75.3 551.3 112.8 550.8C150.3 550.3 187.7 547.7 225.2 545.7C262.7 543.7 300.3 542.3 337.8 538.3C375.3 534.3 412.7 527.7 450.2 525.3C487.7 523 525.3 525 562.8 529.3C600.3 533.7 637.7 540.3 675.2 543.8C712.7 547.3 750.3 547.7 787.8 547.2C825.3 546.7 862.7 545.3 881.3 544.7L900 544L900 601L881.3 601C862.7 601 825.3 601 787.8 601C750.3 601 712.7 601 675.2 601C637.7 601 600.3 601 562.8 601C525.3 601 487.7 601 450.2 601C412.7 601 375.3 601 337.8 601C300.3 601 262.7 601 225.2 601C187.7 601 150.3 601 112.8 601C75.3 601 37.7 601 18.8 601L0 601Z" fill="#9de5ff"></path></svg>