<svg id="visual" viewBox="0 0 900 600" width="900" height="600" xmlns="http://www.w3.org/2000/svg" xmlns:xlink="http://www.w3.org/1999/xlink" version="1.1"><rect x="0" y="0" width="900" height="600" fill="#ffffff"></rect><path d="M0 74L16.7 75.3C33.3 76.7 66.7 79.3 100 96C133.3 112.7 166.7 143.3 200 141.5C233.3 139.7 266.7 105.3 300 90.5C333.3 75.7 366.7 80.3 400 97.2C433.3 114 466.7 143 500 151.3C533.3 159.7 566.7 147.3 600 142.5C633.3 137.7 666.7 140.3 700 135.7C733.3 131 766.7 119 800 117C833.3 115 866.7 123 883.3 127L900 131L900 0L883.3 0C866.7 0 833.3 0 800 0C766.7 0 733.3 0 700 0C666.7 0 633.3 0 600 0C566.7 0 533.3 0 500 0C466.7 0 433.3 0 400 0C366.7 0 333.3 0 300 0C266.7 0 233.3 0 200 0C166.7 0 133.3 0 100 0C66.7 0 33.3 0 16.7 0L0 0Z" fill="#05DFD7" stroke-linecap="round" stroke-linejoin="miter"></path></svg>