<svg id="visual" viewBox="0 0 900 600" width="900" height="600" xmlns="http://www.w3.org/2000/svg" xmlns:xlink="http://www.w3.org/1999/xlink" version="1.1"><rect x="0" y="0" width="900" height="600" fill="#9DE5FF"></rect><path d="M0 219L18.8 210.5C37.7 202 75.3 185 112.8 190.7C150.3 196.3 187.7 224.7 225.2 220.5C262.7 216.3 300.3 179.7 337.8 165.2C375.3 150.7 412.7 158.3 450.2 176.8C487.7 195.3 525.3 224.7 562.8 221C600.3 217.3 637.7 180.7 675.2 180.7C712.7 180.7 750.3 217.3 787.8 221.2C825.3 225 862.7 196 881.3 181.5L900 167L900 601L881.3 601C862.7 601 825.3 601 787.8 601C750.3 601 712.7 601 675.2 601C637.7 601 600.3 601 562.8 601C525.3 601 487.7 601 450.2 601C412.7 601 375.3 601 337.8 601C300.3 601 262.7 601 225.2 601C187.7 601 150.3 601 112.8 601C75.3 601 37.7 601 18.8 601L0 601Z" fill="#aca8ff"></path><path d="M0 382L18.8 390.7C37.7 399.3 75.3 416.7 112.8 429C150.3 441.3 187.7 448.7 225.2 438.5C262.7 428.3 300.3 400.7 337.8 398C375.3 395.3 412.7 417.7 450.2 430.7C487.7 443.7 525.3 447.3 562.8 443C600.3 438.7 637.7 426.3 675.2 419.3C712.7 412.3 750.3 410.7 787.8 408.3C825.3 406 862.7 403 881.3 401.5L900 400L900 601L881.3 601C862.7 601 825.3 601 787.8 601C750.3 601 712.7 601 675.2 601C637.7 601 600.3 601 562.8 601C525.3 601 487.7 601 450.2 601C412.7 601 375.3 601 337.8 601C300.3 601 262.7 601 225.2 601C187.7 601 150.3 601 112.8 601C75.3 601 37.7 601 18.8 601L0 601Z" fill="#f3f3f3"></path></svg>