<svg id="visual" viewBox="0 0 900 600" width="900" height="600" xmlns="http://www.w3.org/2000/svg" xmlns:xlink="http://www.w3.org/1999/xlink" version="1.1"><rect x="0" y="0" width="900" height="600" fill="#232931"></rect><path d="M0 446L18.8 446.8C37.7 447.7 75.3 449.3 112.8 448.7C150.3 448 187.7 445 225.2 437.7C262.7 430.3 300.3 418.7 337.8 404.3C375.3 390 412.7 373 450.2 365.7C487.7 358.3 525.3 360.7 562.8 364.3C600.3 368 637.7 373 675.2 383.5C712.7 394 750.3 410 787.8 409.3C825.3 408.7 862.7 391.3 881.3 382.7L900 374L900 0L881.3 0C862.7 0 825.3 0 787.8 0C750.3 0 712.7 0 675.2 0C637.7 0 600.3 0 562.8 0C525.3 0 487.7 0 450.2 0C412.7 0 375.3 0 337.8 0C300.3 0 262.7 0 225.2 0C187.7 0 150.3 0 112.8 0C75.3 0 37.7 0 18.8 0L0 0Z" fill="#66347f"></path><path d="M0 169L18.8 166.3C37.7 163.7 75.3 158.3 112.8 159.8C150.3 161.3 187.7 169.7 225.2 176.2C262.7 182.7 300.3 187.3 337.8 200.7C375.3 214 412.7 236 450.2 243.7C487.7 251.3 525.3 244.7 562.8 230.2C600.3 215.7 637.7 193.3 675.2 182C712.7 170.7 750.3 170.3 787.8 172.5C825.3 174.7 862.7 179.3 881.3 181.7L900 184L900 0L881.3 0C862.7 0 825.3 0 787.8 0C750.3 0 712.7 0 675.2 0C637.7 0 600.3 0 562.8 0C525.3 0 487.7 0 450.2 0C412.7 0 375.3 0 337.8 0C300.3 0 262.7 0 225.2 0C187.7 0 150.3 0 112.8 0C75.3 0 37.7 0 18.8 0L0 0Z" fill="#03c4a1"></path></svg>