<svg id="visual" viewBox="0 0 900 600" width="900" height="600" xmlns="http://www.w3.org/2000/svg" xmlns:xlink="http://www.w3.org/1999/xlink" version="1.1"><rect x="0" y="0" width="900" height="600" fill="#f3f3f3"></rect><path d="M0 200L21.5 205.8C43 211.7 86 223.3 128.8 234.7C171.7 246 214.3 257 257.2 252.3C300 247.7 343 227.3 385.8 223.8C428.7 220.3 471.3 233.7 514.2 248.7C557 263.7 600 280.3 642.8 280.8C685.7 281.3 728.3 265.7 771.2 264.8C814 264 857 278 878.5 285L900 292L900 601L878.5 601C857 601 814 601 771.2 601C728.3 601 685.7 601 642.8 601C600 601 557 601 514.2 601C471.3 601 428.7 601 385.8 601C343 601 300 601 257.2 601C214.3 601 171.7 601 128.8 601C86 601 43 601 21.5 601L0 601Z" fill="#467eff"></path><path d="M0 292L21.5 290.8C43 289.7 86 287.3 128.8 290.8C171.7 294.3 214.3 303.7 257.2 316C300 328.3 343 343.7 385.8 356.7C428.7 369.7 471.3 380.3 514.2 370C557 359.7 600 328.3 642.8 327.7C685.7 327 728.3 357 771.2 372.8C814 388.7 857 390.3 878.5 391.2L900 392L900 601L878.5 601C857 601 814 601 771.2 601C728.3 601 685.7 601 642.8 601C600 601 557 601 514.2 601C471.3 601 428.7 601 385.8 601C343 601 300 601 257.2 601C214.3 601 171.7 601 128.8 601C86 601 43 601 21.5 601L0 601Z" fill="#e662c1"></path><path d="M0 432L21.5 427C43 422 86 412 128.8 407.5C171.7 403 214.3 404 257.2 406.8C300 409.7 343 414.3 385.8 406.8C428.7 399.3 471.3 379.7 514.2 380.5C557 381.3 600 402.7 642.8 409.8C685.7 417 728.3 410 771.2 404.5C814 399 857 395 878.5 393L900 391L900 601L878.5 601C857 601 814 601 771.2 601C728.3 601 685.7 601 642.8 601C600 601 557 601 514.2 601C471.3 601 428.7 601 385.8 601C343 601 300 601 257.2 601C214.3 601 171.7 601 128.8 601C86 601 43 601 21.5 601L0 601Z" fill="#ff7d71"></path><path d="M0 544L21.5 545.5C43 547 86 550 128.8 543.2C171.7 536.3 214.3 519.7 257.2 505.8C300 492 343 481 385.8 479.2C428.7 477.3 471.3 484.7 514.2 488.7C557 492.7 600 493.3 642.8 500.3C685.7 507.3 728.3 520.7 771.2 517C814 513.3 857 492.7 878.5 482.3L900 472L900 601L878.5 601C857 601 814 601 771.2 601C728.3 601 685.7 601 642.8 601C600 601 557 601 514.2 601C471.3 601 428.7 601 385.8 601C343 601 300 601 257.2 601C214.3 601 171.7 601 128.8 601C86 601 43 601 21.5 601L0 601Z" fill="#ffd829"></path></svg>