<svg id="visual" viewBox="0 0 900 600" width="900" height="600" xmlns="http://www.w3.org/2000/svg" xmlns:xlink="http://www.w3.org/1999/xlink" version="1.1"><rect x="0" y="0" width="900" height="600" fill="#f3f3f3"></rect><path d="M0 401L25 393C50 385 100 369 150 329C200 289 250 225 300 243C350 261 400 361 450 414.8C500 468.7 550 476.3 600 459.5C650 442.7 700 401.3 750 403.8C800 406.3 850 452.7 875 475.8L900 499L900 0L875 0C850 0 800 0 750 0C700 0 650 0 600 0C550 0 500 0 450 0C400 0 350 0 300 0C250 0 200 0 150 0C100 0 50 0 25 0L0 0Z" fill="#f38181"></path><path d="M0 46L25 79.5C50 113 100 180 150 176.3C200 172.7 250 98.3 300 79.8C350 61.3 400 98.7 450 153.2C500 207.7 550 279.3 600 293.8C650 308.3 700 265.7 750 233.7C800 201.7 850 180.3 875 169.7L900 159L900 0L875 0C850 0 800 0 750 0C700 0 650 0 600 0C550 0 500 0 450 0C400 0 350 0 300 0C250 0 200 0 150 0C100 0 50 0 25 0L0 0Z" fill="#f6cd61"></path></svg>