<svg id="visual" viewBox="0 0 900 600" width="900" height="600" xmlns="http://www.w3.org/2000/svg" xmlns:xlink="http://www.w3.org/1999/xlink" version="1.1"><rect x="0" y="0" width="900" height="600" fill="#f3f3f3"></rect><path d="M0 347L21.5 348.2C43 349.3 86 351.7 128.8 374C171.7 396.3 214.3 438.7 257.2 455C300 471.3 343 461.7 385.8 441.8C428.7 422 471.3 392 514.2 378.7C557 365.3 600 368.7 642.8 372.2C685.7 375.7 728.3 379.3 771.2 380.7C814 382 857 381 878.5 380.5L900 380L900 0L878.5 0C857 0 814 0 771.2 0C728.3 0 685.7 0 642.8 0C600 0 557 0 514.2 0C471.3 0 428.7 0 385.8 0C343 0 300 0 257.2 0C214.3 0 171.7 0 128.8 0C86 0 43 0 21.5 0L0 0Z" fill="#f35588"></path><path d="M0 402L21.5 393.5C43 385 86 368 128.8 360C171.7 352 214.3 353 257.2 340.8C300 328.7 343 303.3 385.8 294C428.7 284.7 471.3 291.3 514.2 309.2C557 327 600 356 642.8 364.5C685.7 373 728.3 361 771.2 338.8C814 316.7 857 284.3 878.5 268.2L900 252L900 0L878.5 0C857 0 814 0 771.2 0C728.3 0 685.7 0 642.8 0C600 0 557 0 514.2 0C471.3 0 428.7 0 385.8 0C343 0 300 0 257.2 0C214.3 0 171.7 0 128.8 0C86 0 43 0 21.5 0L0 0Z" fill="#fb815f"></path><path d="M0 279L21.5 272C43 265 86 251 128.8 239C171.7 227 214.3 217 257.2 221.3C300 225.7 343 244.3 385.8 260.5C428.7 276.7 471.3 290.3 514.2 288.2C557 286 600 268 642.8 253.8C685.7 239.7 728.3 229.3 771.2 220.7C814 212 857 205 878.5 201.5L900 198L900 0L878.5 0C857 0 814 0 771.2 0C728.3 0 685.7 0 642.8 0C600 0 557 0 514.2 0C471.3 0 428.7 0 385.8 0C343 0 300 0 257.2 0C214.3 0 171.7 0 128.8 0C86 0 43 0 21.5 0L0 0Z" fill="#e6b057"></path><path d="M0 223L21.5 213C43 203 86 183 128.8 179.5C171.7 176 214.3 189 257.2 195.7C300 202.3 343 202.7 385.8 190.7C428.7 178.7 471.3 154.3 514.2 152.7C557 151 600 172 642.8 183.7C685.7 195.3 728.3 197.7 771.2 200C814 202.3 857 204.7 878.5 205.8L900 207L900 0L878.5 0C857 0 814 0 771.2 0C728.3 0 685.7 0 642.8 0C600 0 557 0 514.2 0C471.3 0 428.7 0 385.8 0C343 0 300 0 257.2 0C214.3 0 171.7 0 128.8 0C86 0 43 0 21.5 0L0 0Z" fill="#c4d87d"></path><path d="M0 109L21.5 107.5C43 106 86 103 128.8 93.7C171.7 84.3 214.3 68.7 257.2 68.5C300 68.3 343 83.7 385.8 97.5C428.7 111.3 471.3 123.7 514.2 123.7C557 123.7 600 111.3 642.8 100.5C685.7 89.7 728.3 80.3 771.2 74.8C814 69.3 857 67.7 878.5 66.8L900 66L900 0L878.5 0C857 0 814 0 771.2 0C728.3 0 685.7 0 642.8 0C600 0 557 0 514.2 0C471.3 0 428.7 0 385.8 0C343 0 300 0 257.2 0C214.3 0 171.7 0 128.8 0C86 0 43 0 21.5 0L0 0Z" fill="#a3f7bf"></path></svg>