<svg id="visual" viewBox="0 0 900 600" width="900" height="600" xmlns="http://www.w3.org/2000/svg" xmlns:xlink="http://www.w3.org/1999/xlink" version="1.1"><rect x="0" y="0" width="900" height="600" fill="#f3f3f3"></rect><path d="M0 351L21.5 361.8C43 372.7 86 394.3 128.8 403.5C171.7 412.7 214.3 409.3 257.2 418.5C300 427.7 343 449.3 385.8 468.3C428.7 487.3 471.3 503.7 514.2 493C557 482.3 600 444.7 642.8 444C685.7 443.3 728.3 479.7 771.2 489.3C814 499 857 482 878.5 473.5L900 465L900 0L878.5 0C857 0 814 0 771.2 0C728.3 0 685.7 0 642.8 0C600 0 557 0 514.2 0C471.3 0 428.7 0 385.8 0C343 0 300 0 257.2 0C214.3 0 171.7 0 128.8 0C86 0 43 0 21.5 0L0 0Z" fill="#f35588"></path><path d="M0 266L21.5 280.2C43 294.3 86 322.7 128.8 338.7C171.7 354.7 214.3 358.3 257.2 342C300 325.7 343 289.3 385.8 298.7C428.7 308 471.3 363 514.2 388.8C557 414.7 600 411.3 642.8 393.5C685.7 375.7 728.3 343.3 771.2 341C814 338.7 857 366.3 878.5 380.2L900 394L900 0L878.5 0C857 0 814 0 771.2 0C728.3 0 685.7 0 642.8 0C600 0 557 0 514.2 0C471.3 0 428.7 0 385.8 0C343 0 300 0 257.2 0C214.3 0 171.7 0 128.8 0C86 0 43 0 21.5 0L0 0Z" fill="#f69158"></path><path d="M0 210L21.5 216C43 222 86 234 128.8 237C171.7 240 214.3 234 257.2 233.2C300 232.3 343 236.7 385.8 247.8C428.7 259 471.3 277 514.2 284.8C557 292.7 600 290.3 642.8 281.2C685.7 272 728.3 256 771.2 258C814 260 857 280 878.5 290L900 300L900 0L878.5 0C857 0 814 0 771.2 0C728.3 0 685.7 0 642.8 0C600 0 557 0 514.2 0C471.3 0 428.7 0 385.8 0C343 0 300 0 257.2 0C214.3 0 171.7 0 128.8 0C86 0 43 0 21.5 0L0 0Z" fill="#d0cb6c"></path><path d="M0 153L21.5 149.2C43 145.3 86 137.7 128.8 124C171.7 110.3 214.3 90.7 257.2 95C300 99.3 343 127.7 385.8 125.7C428.7 123.7 471.3 91.3 514.2 87C557 82.7 600 106.3 642.8 119.2C685.7 132 728.3 134 771.2 131C814 128 857 120 878.5 116L900 112L900 0L878.5 0C857 0 814 0 771.2 0C728.3 0 685.7 0 642.8 0C600 0 557 0 514.2 0C471.3 0 428.7 0 385.8 0C343 0 300 0 257.2 0C214.3 0 171.7 0 128.8 0C86 0 43 0 21.5 0L0 0Z" fill="#a3f7bf"></path></svg>